<svg width="50" height="48" viewBox="0 0 50 48" fill="none" xmlns="http://www.w3.org/2000/svg">
<circle cx="24" cy="24" r="24" fill="#F6F7FB"/>
<path d="M12.9174 15.25H35.084V33.3333H12.9174V15.25Z" fill="#94C2FF"/>
<path d="M12.9174 18.166H35.084V33.3327H12.9174V18.166Z" fill="#4785FF"/>
<path d="M28.6663 26.3324C29.7938 26.3324 30.7079 25.4183 30.7079 24.2907C30.7079 23.1631 29.7938 22.249 28.6663 22.249C27.5387 22.249 26.6246 23.1631 26.6246 24.2907C26.6246 25.4183 27.5387 26.3324 28.6663 26.3324Z" fill="white"/>
<path d="M22.8329 22.8324H16.4163V24.5824H22.8329V22.8324Z" fill="white"/>
<path d="M16.4163 26.3324H19.9163V28.0824H16.4163V26.3324Z" fill="white"/>
<path d="M32.4582 30.1055L32.4583 30.124C32.4583 30.1412 32.4582 30.1583 32.4579 30.1755V30.0726L32.4582 30.1055Z" fill="white"/>
<path d="M28.6663 26.3324C30.6622 26.3324 32.2983 27.8746 32.4472 29.8324H24.886C25.0349 27.8746 26.6703 26.3324 28.6663 26.3324Z" fill="white"/>
<path fill-rule="evenodd" clip-rule="evenodd" d="M43.0007 34.584C46.5445 34.584 49.4173 37.4568 49.4173 41.0007C49.4173 44.5445 46.5445 47.4173 43.0007 47.4173C39.4568 47.4173 36.584 44.5445 36.584 41.0007C36.584 37.4568 39.4568 34.584 43.0007 34.584Z" fill="#00AA2A"/>
<path fill-rule="evenodd" clip-rule="evenodd" d="M45.139 39.0117L45.4742 39.2929C45.6593 39.4481 45.6835 39.7241 45.5282 39.9092C45.5281 39.9092 45.5281 39.9092 45.528 39.9092L42.602 43.3943C42.4466 43.5792 42.1707 43.6033 41.9855 43.4481L41.3153 42.8857L44.5226 39.0655C44.678 38.8806 44.9539 38.8565 45.139 39.0117Z" fill="white"/>
<path fill-rule="evenodd" clip-rule="evenodd" d="M40.1931 41.3253L40.4867 40.9992C40.6458 40.8225 40.917 40.8053 41.0972 40.9604L43.1551 42.7316L42.5952 43.4053C42.4407 43.5911 42.1649 43.6165 41.9791 43.4621C41.9768 43.4602 41.9745 43.4583 41.9722 43.4563L40.2318 41.9487C40.0492 41.7905 40.0294 41.5142 40.1876 41.3316C40.1894 41.3294 40.1913 41.3273 40.1931 41.3253Z" fill="white"/>
</svg>
