<?xml version="1.0" encoding="UTF-8"?>
<svg width="48px" height="48px" viewBox="0 0 48 48" version="1.1" xmlns="http://www.w3.org/2000/svg" xmlns:xlink="http://www.w3.org/1999/xlink">
    <title>google</title>
    <g id="google" stroke="none" stroke-width="1" fill="none" fill-rule="evenodd">
        <g id="编组">
            <circle id="椭圆形" fill="#F6F7FB" cx="24" cy="24" r="24"></circle>
            <path d="M16.5899782,24.0023095 C16.5899782,23.1224018 16.7380416,22.278291 17,21.4872979 L12.4009217,18 C11.4768911,19.8619786 10.9970416,21.9179346 11,24.0023095 C11,26.1593533 11.5034294,28.1939954 12.3986438,30 L16.9954442,26.5069284 C16.7274122,25.6998231 16.5904735,24.8539344 16.5899782,24.0023095" id="路径" fill="#FBBC05" fill-rule="nonzero"></path>
            <path d="M24.1088982,16.5259027 C26.0089945,16.5259027 27.7258272,17.2005233 29.075008,18.3057038 L33,14.3765568 C30.6085769,12.2893773 27.5425634,11 24.1088982,11 C18.7773852,11 14.1946675,14.0565149 12,18.5232862 L16.5422422,22 C17.5878574,18.8156986 20.5695471,16.5259027 24.1088982,16.5259027" id="路径" fill="#EA4335" fill-rule="nonzero"></path>
            <path d="M24.1675274,31.4740973 C20.6099096,31.4740973 17.6137831,29.1843014 16.5619755,26 L12,29.4767138 C14.204164,33.9434851 18.8090704,37 24.1675274,37 C27.4732085,37 30.6297611,35.8291994 33,33.6338043 L28.6684958,30.2929356 C27.447224,31.0608059 25.9084893,31.4740973 24.1663977,31.4740973" id="路径" fill="#34A853" fill-rule="nonzero"></path>
            <path d="M37,24.3392433 C37,23.579236 36.8751637,22.7600073 36.690179,22 L24,22 L24,26.9713032 L31.3040594,26.9713032 C30.9397643,28.6667885 29.9456133,29.9696582 28.5236141,30.8174008 L32.8735923,34 C35.3737233,31.8044233 37,28.5340888 37,24.3392433" id="路径" fill="#4285F4" fill-rule="nonzero"></path>
        </g>
    </g>
</svg>