<svg width="48" height="48" viewBox="0 0 48 48" fill="none" xmlns="http://www.w3.org/2000/svg">
<path d="M48 23.8659C48 10.6851 37.2548 0 24 0C10.7452 0 0 10.6851 0 23.8659C0 37.0467 10.7452 47.7318 24 47.7318C37.2548 47.7318 48 37.0467 48 23.8659Z" fill="#F6F7FB"/>
<path d="M21.5424 25.3742C16.6518 25.3742 13 28.5293 13 33.1112V33.6049C13 36 16.9134 36 21.8687 36H27.1313C31.8898 36 36 36 36 33.6049V33.1112C36 28.5293 32.3479 25.3742 27.4576 25.3742H21.5424ZM24.2364 24.1685C28.1102 24.1685 31.2622 21.2152 31.2622 17.5831C31.2622 13.953 28.1102 11 24.2364 11C20.3648 11 17.2125 13.9533 17.2125 17.5831C17.2125 21.2152 20.3648 24.1685 24.2364 24.1685Z" fill="#DDE2E9"/>
<path d="M13 33.1112C13 28.5293 16.6518 25.3743 21.5424 25.3743H27.4576C32.3479 25.3743 36 28.5293 36 33.1112V33.605C36 36 31.8898 36 27.1313 36H21.8687C16.9134 36 13 36 13 33.605V33.1112Z" fill="#737A87"/>
</svg>
