<?xml version="1.0" encoding="UTF-8"?>
<svg width="48px" height="48px" viewBox="0 0 48 48" version="1.1" xmlns="http://www.w3.org/2000/svg" xmlns:xlink="http://www.w3.org/1999/xlink">
    <title>wechat</title>
    <g id="wechat" stroke="none" stroke-width="1" fill="none" fill-rule="evenodd">
        <g>
            <circle id="椭圆形" fill="#F6F7FB" cx="24" cy="24" r="24"></circle>
            <rect id="矩形" fill="#FFFFFF" x="14" y="15" width="13" height="5"></rect>
            <rect id="矩形" fill="#FFFFFF" x="23" y="23" width="14" height="7"></rect>
            <path d="M36.8522756,34.2142276 C38.7835374,32.7224635 40,30.5586415 40,28.1524773 C40,23.6500302 35.7452507,20 30.5,20 C25.2547492,20 21,23.6500302 21,28.1524773 C21,32.6556188 25.251915,36.3056143 30.4985829,36.3056143 C32.0163268,36.3056143 33.4516294,35.9998652 34.7249187,35.45667 L37.2416669,36.8432884 C37.3042331,36.9373223 37.4136354,37 37.5358627,37 C37.7319578,37 37.888267,36.8446773 37.888267,36.6531718 C37.888267,36.5807712 37.8655221,36.5125029 37.8257362,36.4568048 L37.8968052,36.3356163 L36.8522756,34.2142276 Z M27.332365,26.5924448 C26.5550349,26.5924448 25.9254759,25.9705291 25.9254759,25.2044374 C25.9254759,24.4383457 26.5550349,23.81643 27.332365,23.81643 C28.1082425,23.81643 28.7392541,24.4383457 28.7392541,25.2044374 C28.7392541,25.9705291 28.1082779,26.5924448 27.332365,26.5924448 Z M34.017205,26.5924448 C33.239875,26.5924448 32.6103159,25.9705291 32.6103159,25.2044374 C32.6103159,24.4383457 33.239875,23.81643 34.017205,23.81643 C34.7945351,23.81643 35.4240941,24.4383457 35.4240941,25.2044374 C35.4240941,25.9705291 34.7945351,26.5924448 34.017205,26.5924448 Z" id="形状" fill="#0AC160" fill-rule="nonzero"></path>
            <path d="M20.0723627,11 C13.9576513,11 9,15.3827515 9,20.7879895 C9,23.9618265 10.7078946,26.7819739 13.3571239,28.5710847 L12.295167,31.366223 C12.2156724,31.431952 12.1631479,31.5312758 12.1631479,31.6441729 C12.1631479,31.8406829 12.3207567,32 12.5152459,32 C12.6288248,32 12.7296264,31.9457068 12.7920966,31.8620938 L15.8586901,29.8428781 C17.1591661,30.3158774 18.5802998,30.577404 20.0738493,30.577404 C20.2427841,30.577404 20.4131347,30.5745539 20.5806891,30.5673932 C20.3648929,29.831478 20.2484825,29.0597948 20.2484825,28.2638507 C20.2484825,23.2508847 24.8128727,19.1875155 30.4420514,19.1875155 C30.6294618,19.1875155 30.8154565,19.1917905 31,19.2003763 C30.1424425,14.5503626 25.5752208,11 20.0723627,11 Z M16.0304564,19.1875155 C15.2538801,19.1875155 14.6249314,18.5494635 14.6249314,17.7634945 C14.6249314,16.9775255 15.2538801,16.3394734 16.0304564,16.3394734 C16.8070328,16.3394734 17.4373972,16.9775255 17.4373972,17.7634945 C17.4373972,18.5494635 16.8070328,19.1875155 16.0304564,19.1875155 Z M24.4678181,19.1875155 C23.689826,19.1875155 23.0608774,18.5494635 23.0608774,17.7634945 C23.0608774,16.9775255 23.689826,16.3394734 24.4678181,16.3394734 C25.2429787,16.3394734 25.8733431,16.9775255 25.8733431,17.7634945 C25.8733431,18.5494635 25.2430141,19.1875155 24.4678181,19.1875155 Z" id="形状" fill="#0AC160" fill-rule="nonzero"></path>
        </g>
    </g>
</svg>